<svg width="56" height="56" viewBox="0 0 56 56" fill="none" xmlns="http://www.w3.org/2000/svg">
<path d="M48.125 6.125H7.875C6.90703 6.125 6.125 6.90703 6.125 7.875V48.125C6.125 49.093 6.90703 49.875 7.875 49.875H48.125C49.093 49.875 49.875 49.093 49.875 48.125V7.875C49.875 6.90703 49.093 6.125 48.125 6.125ZM46.375 46.375H36.307V32.9328H41.9945L42.8477 26.332H36.307V22.1156C36.307 20.2016 36.8375 18.9 39.5773 18.9H43.0719V12.9938C42.4648 12.9117 40.3922 12.7313 37.975 12.7313C32.9328 12.7313 29.482 15.8102 29.482 21.4594V26.3266H23.7836V32.9273H29.4875V46.375H9.625V9.625H46.375V46.375Z" fill="black"/>
</svg>
