<svg width="56" height="56" viewBox="0 0 56 56" fill="none" xmlns="http://www.w3.org/2000/svg">
<path d="M18.2001 4.66675H37.8001C45.2667 4.66675 51.3334 10.7334 51.3334 18.2001V37.8001C51.3334 41.3893 49.9076 44.8316 47.3696 47.3696C44.8316 49.9076 41.3893 51.3334 37.8001 51.3334H18.2001C10.7334 51.3334 4.66675 45.2667 4.66675 37.8001V18.2001C4.66675 14.6108 6.09258 11.1686 8.63057 8.63057C11.1686 6.09258 14.6108 4.66675 18.2001 4.66675M17.7334 9.33341C15.5056 9.33341 13.369 10.2184 11.7937 11.7937C10.2184 13.369 9.33341 15.5056 9.33341 17.7334V38.2667C9.33341 42.9101 13.0901 46.6667 17.7334 46.6667H38.2667C40.4946 46.6667 42.6311 45.7818 44.2064 44.2064C45.7818 42.6311 46.6667 40.4946 46.6667 38.2667V17.7334C46.6667 13.0901 42.9101 9.33341 38.2667 9.33341H17.7334ZM40.2501 12.8334C41.0236 12.8334 41.7655 13.1407 42.3125 13.6877C42.8595 14.2347 43.1667 14.9765 43.1667 15.7501C43.1667 16.5236 42.8595 17.2655 42.3125 17.8125C41.7655 18.3595 41.0236 18.6667 40.2501 18.6667C39.4765 18.6667 38.7347 18.3595 38.1877 17.8125C37.6407 17.2655 37.3334 16.5236 37.3334 15.7501C37.3334 14.9765 37.6407 14.2347 38.1877 13.6877C38.7347 13.1407 39.4765 12.8334 40.2501 12.8334ZM28.0001 16.3334C31.0943 16.3334 34.0617 17.5626 36.2497 19.7505C38.4376 21.9384 39.6667 24.9059 39.6667 28.0001C39.6667 31.0943 38.4376 34.0617 36.2497 36.2497C34.0617 38.4376 31.0943 39.6667 28.0001 39.6667C24.9059 39.6667 21.9384 38.4376 19.7505 36.2497C17.5626 34.0617 16.3334 31.0943 16.3334 28.0001C16.3334 24.9059 17.5626 21.9384 19.7505 19.7505C21.9384 17.5626 24.9059 16.3334 28.0001 16.3334M28.0001 21.0001C26.1436 21.0001 24.3631 21.7376 23.0503 23.0503C21.7376 24.3631 21.0001 26.1436 21.0001 28.0001C21.0001 29.8566 21.7376 31.6371 23.0503 32.9498C24.3631 34.2626 26.1436 35.0001 28.0001 35.0001C29.8566 35.0001 31.6371 34.2626 32.9498 32.9498C34.2626 31.6371 35.0001 29.8566 35.0001 28.0001C35.0001 26.1436 34.2626 24.3631 32.9498 23.0503C31.6371 21.7376 29.8566 21.0001 28.0001 21.0001Z" fill="black"/>
</svg>
