<svg width="80" height="80" viewBox="0 0 80 80" fill="none" xmlns="http://www.w3.org/2000/svg">
<path d="M59.1667 13.6333L50.7333 20.1L53.7667 30.3L45 24.2667L36.2333 30.3L39.2667 20.1L30.8333 13.6333L41.4667 13.3333L45 3.33334L48.5333 13.3333L59.1667 13.6333ZM70.8333 36.6667L65.3667 40.8333L67.3333 47.4333L61.6667 43.5333L56 47.4333L57.9667 40.8333L52.5 36.6667L59.3667 36.5L61.6667 30L63.9667 36.5L70.8333 36.6667ZM63.2333 53.1667C66 52.9 68.9667 56.8333 67.2 59.3333C66.1333 60.8333 65 62.2333 63.6 63.5667C50.5667 76.6667 29.4667 76.6667 16.4667 63.5667C3.43332 50.5667 3.43332 29.4333 16.4667 16.4333C17.8 15.1 19.2 13.9 20.7 12.8333C23.2 11.0667 27.1333 14.0333 26.8667 16.8C25.9667 26.3333 29.1667 36.2333 36.5 43.5333C39.9653 47.0174 44.1609 49.6888 48.7839 51.3547C53.4069 53.0206 58.3421 53.6395 63.2333 53.1667ZM57.7667 59.9C47.9811 59.3374 38.7367 55.2249 31.7667 48.3333C24.5333 41.0333 20.6667 31.6667 20.1333 22.2667C10.7667 32.7333 11.1333 48.8 21.1667 58.8667C31.2333 68.9 47.3 69.2667 57.7667 59.9V59.9Z" fill="black"/>
</svg>
