<svg width="80" height="80" viewBox="0 0 80 80" fill="none" xmlns="http://www.w3.org/2000/svg">
<path d="M40 60C34.6957 60 29.6086 57.8929 25.8578 54.1422C22.1071 50.3914 20 45.3043 20 40C20 34.6957 22.1071 29.6086 25.8578 25.8579C29.6086 22.1071 34.6957 20 40 20C45.3043 20 50.3914 22.1071 54.1421 25.8579C57.8928 29.6086 60 34.6957 60 40C60 45.3043 57.8928 50.3914 54.1421 54.1422C50.3914 57.8929 45.3043 60 40 60ZM40 53.3333C43.5362 53.3333 46.9276 51.9286 49.4281 49.4281C51.9286 46.9276 53.3333 43.5362 53.3333 40C53.3333 36.4638 51.9286 33.0724 49.4281 30.5719C46.9276 28.0714 43.5362 26.6667 40 26.6667C36.4638 26.6667 33.0724 28.0714 30.5719 30.5719C28.0714 33.0724 26.6666 36.4638 26.6666 40C26.6666 43.5362 28.0714 46.9276 30.5719 49.4281C33.0724 51.9286 36.4638 53.3333 40 53.3333V53.3333ZM36.6666 3.33334H43.3333V13.3333H36.6666V3.33334ZM36.6666 66.6667H43.3333V76.6667H36.6666V66.6667ZM11.7166 16.43L16.43 11.7167L23.5 18.7867L18.7866 23.5L11.7166 16.4333V16.43ZM56.5 61.2133L61.2133 56.5L68.2833 63.57L63.57 68.2833L56.5 61.2133ZM63.57 11.7133L68.2833 16.43L61.2133 23.5L56.5 18.7867L63.57 11.7167V11.7133ZM18.7866 56.5L23.5 61.2133L16.43 68.2833L11.7166 63.57L18.7866 56.5V56.5ZM76.6666 36.6667V43.3333H66.6666V36.6667H76.6666ZM13.3333 36.6667V43.3333H3.33331V36.6667H13.3333Z" fill="black"/>
</svg>
