<svg width="56" height="56" viewBox="0 0 56 56" fill="none" xmlns="http://www.w3.org/2000/svg">
<path d="M28.0934 4.66664C15.3534 4.66664 4.97011 15.05 4.97011 27.79C4.97011 31.8733 6.04345 35.84 8.05011 39.34L4.78345 51.3333L17.0334 48.1133C20.4168 49.9566 24.2201 50.9366 28.0934 50.9366C40.8334 50.9366 51.2168 40.5533 51.2168 27.8133C51.2168 21.63 48.8134 15.82 44.4501 11.4566C42.3109 9.2958 39.7629 7.58253 36.9546 6.41676C34.1463 5.25099 31.1341 4.65605 28.0934 4.66664M28.1168 8.56331C33.2501 8.56331 38.0568 10.57 41.6968 14.21C43.4832 15.9958 44.8995 18.1167 45.8645 20.4511C46.8295 22.7855 47.3241 25.2874 47.3201 27.8133C47.3201 38.4066 38.6868 47.0166 28.0934 47.0166C24.6401 47.0166 21.2568 46.1066 18.3168 44.3333L17.6168 43.9366L10.3368 45.85L12.2734 38.7566L11.8068 38.01C9.87931 34.9502 8.85981 31.4062 8.86678 27.79C8.89011 17.1966 17.5001 8.56331 28.1168 8.56331M19.9034 17.1033C19.5301 17.1033 18.9001 17.2433 18.3634 17.8266C17.8501 18.41 16.3334 19.8333 16.3334 22.6566C16.3334 25.5033 18.4101 28.2333 18.6668 28.63C18.9934 29.0266 22.7734 34.86 28.5834 37.3333C29.9601 37.9633 31.0334 38.3133 31.8734 38.57C33.2501 39.0133 34.5101 38.9433 35.5134 38.8033C36.6334 38.64 38.9201 37.4033 39.4101 36.05C39.9001 34.6966 39.9001 33.5533 39.7601 33.2966C39.5968 33.0633 39.2234 32.9233 38.6401 32.6666C38.0568 32.34 35.2101 30.94 34.6968 30.7533C34.1601 30.5666 33.8334 30.4733 33.3901 31.0333C33.0168 31.6166 31.8968 32.9233 31.5701 33.2966C31.2201 33.6933 30.8934 33.74 30.3334 33.46C29.7268 33.1566 27.8601 32.55 25.6668 30.59C23.9401 29.05 22.7968 27.16 22.4468 26.5766C22.1668 26.0166 22.4234 25.6666 22.7034 25.41C22.9601 25.1533 23.3334 24.7333 23.5668 24.3833C23.8701 24.0566 23.9634 23.8 24.1501 23.4266C24.3368 23.03 24.2434 22.7033 24.1034 22.4233C23.9634 22.1666 22.7968 19.2733 22.3068 18.13C21.8401 17.01 21.3734 17.15 21.0001 17.1266C20.6734 17.1266 20.3001 17.1033 19.9034 17.1033V17.1033Z" fill="black"/>
</svg>
